<svg xmlns="http://www.w3.org/2000/svg" width="72" height="40" viewBox="0 0 72 40">
    <path fill="#FFF" fill-rule="evenodd" d="M9.542 34.294a1.441 1.441 0 0 1-.755.749c-.172.073-.353.11-.542.11H4.878c-1.315 0-2.438-.465-3.367-1.394-.928-.929-1.393-2.055-1.393-3.38 0-1.316.465-2.438 1.393-3.367.938-.937 2.06-1.406 3.367-1.406h3.367a1.414 1.414 0 0 1 1.406 1.406c0 .198-.036.38-.11.548a1.436 1.436 0 0 1-.754.748c-.172.074-.353.11-.542.11H4.878c-.542 0-1.006.193-1.393.58a1.879 1.879 0 0 0-.568 1.381c0 .533.19.998.568 1.393.395.379.86.568 1.393.568h3.367a1.42 1.42 0 0 1 1.296.864c.074.172.11.353.11.542 0 .198-.036.38-.11.548zm62.04-.548c0 .198-.036.38-.11.548a1.44 1.44 0 0 1-.754.748 1.37 1.37 0 0 1-.542.11h-3.367c-1.316 0-2.438-.464-3.367-1.393-.929-.929-1.393-2.056-1.393-3.38 0-1.316.464-2.438 1.393-3.367.938-.937 2.06-1.406 3.367-1.406h3.367a1.41 1.41 0 0 1 1.297 1.954 1.44 1.44 0 0 1-.755.749c-.172.073-.353.11-.542.11h-3.367a1.9 1.9 0 0 0-1.393.58 1.878 1.878 0 0 0-.568 1.38c0 .533.19.998.568 1.393.395.379.86.568 1.393.568h1.974v-.555h-1.974c-.378 0-.705-.137-.98-.413a1.354 1.354 0 0 1-.413-.993c0-.189.036-.37.11-.542.073-.172.172-.322.297-.451a1.357 1.357 0 0 1 .986-.413h3.367a1.412 1.412 0 0 1 1.406 1.406v3.367zm-10.757 0c0 .198-.036.38-.11.548a1.444 1.444 0 0 1-.754.748c-.172.074-.353.11-.542.11-.378 0-.705-.137-.98-.413a1.353 1.353 0 0 1-.413-.993v-6.734c0-.19.036-.37.11-.542.072-.172.172-.322.296-.451a1.355 1.355 0 0 1 .987-.413 1.41 1.41 0 0 1 1.406 1.406v6.734zm-4.023 0c0 .198-.036.38-.11.548a1.444 1.444 0 0 1-.754.748c-.172.074-.353.11-.542.11-.378 0-.705-.137-.98-.413a1.354 1.354 0 0 1-.413-.993v-3.367c0-.533-.193-.993-.58-1.38a1.9 1.9 0 0 0-1.394-.58 1.9 1.9 0 0 0-1.393.58c-.295.295-.475.64-.54 1.033.008.114.011.23.011.347v3.367c0 .198-.036.38-.11.548a1.442 1.442 0 0 1-.754.748c-.172.074-.353.11-.542.11h-.039c-.378 0-.705-.137-.98-.413a1.353 1.353 0 0 1-.413-.993v-3.367c0-.115.004-.229.011-.341a1.896 1.896 0 0 0-.552-1.04 1.9 1.9 0 0 0-1.394-.58 1.9 1.9 0 0 0-1.393.58 1.879 1.879 0 0 0-.567 1.381v3.367a1.407 1.407 0 0 1-.407 1 1.396 1.396 0 0 1-1 .406c-.378 0-.705-.137-.98-.413a1.354 1.354 0 0 1-.413-.993v-3.367c0-1.316.465-2.438 1.394-3.367.937-.937 2.059-1.406 3.366-1.406s2.423.462 3.348 1.387c.933-.925 2.049-1.387 3.347-1.387 1.316 0 2.438.469 3.367 1.406.938.929 1.406 2.051 1.406 3.367v3.367zm-17.561.548a1.442 1.442 0 0 1-.755.749c-.172.073-.352.11-.541.11h-3.368c-1.315 0-2.438-.465-3.366-1.394-.93-.929-1.394-2.055-1.394-3.38 0-1.316.465-2.438 1.394-3.367.937-.937 2.06-1.406 3.366-1.406h3.368a1.417 1.417 0 0 1 1.296.865c.073.171.11.352.11.541 0 .198-.037.38-.11.548a1.436 1.436 0 0 1-.755.748c-.172.074-.352.11-.541.11h-3.368c-.541 0-1.006.193-1.393.58a1.879 1.879 0 0 0-.567 1.381c0 .533.189.998.567 1.393.396.379.86.568 1.393.568h3.368a1.423 1.423 0 0 1 1.296.864c.073.172.11.353.11.542 0 .198-.037.38-.11.548zm0-3.367a1.442 1.442 0 0 1-.755.749c-.172.073-.352.11-.541.11h-3.368c-.378 0-.705-.138-.98-.414a1.354 1.354 0 0 1-.413-.993c0-.189.037-.37.11-.542.073-.172.172-.322.297-.451a1.36 1.36 0 0 1 .986-.413h3.368a1.422 1.422 0 0 1 1.296.864c.073.172.11.353.11.542 0 .198-.037.38-.11.548zm-9.83-3.367a1.439 1.439 0 0 1-.754.749c-.173.073-.353.11-.542.11h-1.961v5.327c0 .198-.037.38-.11.548a1.435 1.435 0 0 1-.754.748 1.37 1.37 0 0 1-.542.11c-.379 0-.706-.137-.98-.413a1.354 1.354 0 0 1-.413-.993v-5.328H21.38c-.379 0-.705-.137-.98-.413a1.353 1.353 0 0 1-.413-.993c0-.19.036-.37.11-.542.072-.172.171-.322.296-.451a1.357 1.357 0 0 1 .987-.413h6.734a1.414 1.414 0 0 1 1.406 1.406c0 .198-.037.38-.11.548zm-11.19 6.199c-.929.929-2.051 1.393-3.367 1.393-1.316 0-2.438-.464-3.367-1.393-.929-.929-1.393-2.055-1.393-3.38 0-1.316.464-2.438 1.393-3.367.937-.937 2.06-1.406 3.367-1.406 1.316 0 2.438.469 3.367 1.406.937.929 1.406 2.051 1.406 3.367 0 1.316-.469 2.443-1.406 3.38zm-1.974-4.76a1.9 1.9 0 0 0-1.393-.58c-.542 0-1.006.193-1.393.58a1.878 1.878 0 0 0-.568 1.38c0 .533.19.998.568 1.393.395.379.86.568 1.393.568s.997-.19 1.393-.568c.387-.37.58-.834.58-1.393 0-.533-.193-.993-.58-1.38zm17.864-7.4c-.055 0-.11-.003-.167-.013a9.06 9.06 0 0 1-7.597-8.972 9.04 9.04 0 0 1 3.53-7.194 9.01 9.01 0 0 1 5.565-1.9 9.083 9.083 0 0 1 8.632 6.224 1.008 1.008 0 1 1-1.913.636 7.069 7.069 0 0 0-6.72-4.844 7.009 7.009 0 0 0-4.329 1.478 7.037 7.037 0 0 0-2.748 5.6 7.05 7.05 0 0 0 5.91 6.983 1.008 1.008 0 0 1-.163 2.003zm1.331-3.354a5.637 5.637 0 0 1-5.63-5.63c0-1.756.796-3.38 2.185-4.455a1.008 1.008 0 0 1 1.235 1.594 3.593 3.593 0 0 0-1.404 2.86 3.618 3.618 0 0 0 3.614 3.614 3.62 3.62 0 0 0 3.411-2.416 1.009 1.009 0 0 1 1.903.668 5.638 5.638 0 0 1-5.314 3.765zm12.56-5.63c0 1.61-.31 3.197-.902 4.675a2.238 2.238 0 1 1-1.815-.897c.46-1.199.7-2.479.7-3.779 0-5.813-4.73-10.542-10.543-10.542a10.585 10.585 0 0 0-9.567 6.106 10.456 10.456 0 0 0-.976 4.436 1.008 1.008 0 0 1-2.016 0c0-1.845.391-3.623 1.163-5.285A12.608 12.608 0 0 1 35.442.055c6.925 0 12.56 5.634 12.56 12.56zM7.583 39.513c-.401 0-.71-.118-.93-.353-.218-.236-.327-.569-.327-1 0-.43.111-.764.334-1 .222-.238.536-.356.94-.356.231 0 .502.037.812.113v.343c-.353-.122-.625-.183-.817-.183-.28 0-.497.095-.65.284-.154.19-.23.457-.23.802 0 .33.082.589.245.779.164.19.388.285.672.285.244 0 .505-.075.784-.225v.314a1.79 1.79 0 0 1-.833.197zm3.082 0c-.358 0-.646-.124-.864-.373-.218-.248-.327-.576-.327-.984 0-.41.11-.738.329-.984.219-.245.511-.368.877-.368.365 0 .658.122.877.367.22.246.33.573.33.982 0 .417-.11.748-.33.993-.22.244-.517.367-.892.367zm.005-.274c.264 0 .468-.095.612-.285.144-.19.216-.458.216-.805 0-.335-.072-.598-.217-.788a.713.713 0 0 0-.6-.284.712.712 0 0 0-.602.285c-.144.19-.216.454-.216.793 0 .337.071.602.214.795.143.192.34.289.593.289zm2.711.21v-2.58h.366v2.305h1.161v.274h-1.527zm3.08 0v-2.58h1.442v.273H16.83v.828h.9v.27h-.9v.934h1.15v.274h-1.517zm.462-2.797l.42-.56h.398l-.56.56h-.258zm4.66 2.726a3.03 3.03 0 0 1-.817.135c-.41 0-.725-.117-.944-.35-.219-.234-.328-.57-.328-1.005 0-.428.11-.76.333-.998.222-.238.533-.356.934-.356.263 0 .536.039.82.116v.339c-.356-.121-.629-.182-.818-.182-.28 0-.496.095-.65.284-.153.19-.23.457-.23.8 0 .341.082.606.247.795.165.188.396.283.694.283.122 0 .254-.022.396-.065v-.84h.364v1.044zm1.452.07v-2.58h.366v2.58h-.366zm3.264.065c-.358 0-.646-.124-.864-.373-.218-.248-.327-.576-.327-.984 0-.41.11-.738.33-.984.218-.245.51-.368.877-.368.365 0 .657.122.877.367.22.246.33.573.33.982 0 .417-.11.748-.33.993-.22.244-.518.367-.893.367zm.005-.274c.264 0 .468-.095.612-.285.144-.19.216-.458.216-.805 0-.335-.072-.598-.217-.788a.713.713 0 0 0-.6-.284.712.712 0 0 0-.602.285c-.144.19-.216.454-.216.793 0 .337.072.602.215.795.143.192.34.289.592.289zm5.089.21v-2.58h1.442v.273H31.76v.828h.901v.27h-.9v.934h1.15v.274h-1.517zm5.562 0v-2.58h1.441v.273h-1.075v.864h.903v.27h-.903v1.172h-.366zm4.291-.988l-.44-1.112-.44 1.112h.88zm.387.987l-.28-.715H40.26l-.284.715h-.34l1.024-2.58h.362l1.008 2.58h-.396zm2.934.065c-.4 0-.71-.118-.93-.353-.218-.236-.327-.569-.327-1 0-.43.111-.764.334-1 .223-.238.536-.356.94-.356.232 0 .503.037.813.113v.343c-.353-.122-.626-.183-.818-.183-.28 0-.497.095-.65.284-.153.19-.23.457-.23.802 0 .33.082.589.246.779.164.19.387.285.67.285.245 0 .506-.075.785-.225v.314a1.79 1.79 0 0 1-.833.197zm2.022-2.645h.366v1.628c0 .26.048.448.144.566.096.118.249.177.458.177.204 0 .35-.056.435-.167.085-.11.128-.299.128-.564v-1.64h.32v1.635c0 .352-.072.609-.216.769-.145.16-.376.24-.692.24-.322 0-.56-.083-.713-.249-.153-.166-.23-.423-.23-.77v-1.625zm3.705 2.58v-2.58h.366v2.306h1.161v.274h-1.527zm3.08 0v-2.58h.858c.256 0 .462.029.62.086a.956.956 0 0 1 .409.289c.182.216.273.5.273.854 0 .429-.113.761-.34.997-.226.236-.545.354-.957.354h-.863zm.366-.274h.47c.334 0 .571-.09.71-.27.15-.192.226-.449.226-.772 0-.303-.074-.542-.222-.715a.682.682 0 0 0-.32-.217 2.01 2.01 0 0 0-.562-.058h-.302v2.032zm4.572-.713l-.44-1.112-.44 1.112h.88zm.387.987l-.28-.715h-1.094l-.284.715h-.34l1.024-2.58h.362l1.008 2.58H58.7zm1.829 0v-2.58h.857c.256 0 .463.029.62.086a.956.956 0 0 1 .409.289c.182.216.274.5.274.854 0 .429-.114.761-.34.997-.227.236-.546.354-.957.354h-.863zm.366-.274h.469c.334 0 .572-.09.711-.27.15-.192.225-.449.225-.772 0-.303-.074-.542-.222-.715a.682.682 0 0 0-.32-.217 2.01 2.01 0 0 0-.562-.058h-.301v2.032zm3.264.274v-2.58h1.442v.274h-1.076v.828h.901v.27h-.9v.934h1.15v.274h-1.517z"/>
</svg>
